<svg width="33" height="33" viewBox="0 0 33 33" fill="none" xmlns="http://www.w3.org/2000/svg">
<path d="M28.875 26.8125V6.1875C28.875 5.04831 27.9517 4.125 26.8125 4.125H6.1875C5.04831 4.125 4.125 5.04831 4.125 6.1875V26.8125C4.125 27.9517 5.04831 28.875 6.1875 28.875H26.8125C27.9517 28.875 28.875 27.9517 28.875 26.8125Z" fill="#1C9957"/>
<path d="M6.1875 28.875H26.8125C27.9517 28.875 16.5 17.875 16.5 17.875C16.5 17.875 5.04831 28.875 6.1875 28.875Z" fill="#3E7BF1"/>
<path d="M28.875 26.8126V6.1876C28.875 5.04841 17.875 16.5001 17.875 16.5001C17.875 16.5001 28.875 27.9518 28.875 26.8126Z" fill="#CBCCC9"/>
<path d="M26.8125 28.875C27.9517 28.875 28.875 27.9517 28.875 26.8125V26.6441L18.0434 15.8125L15.8125 18.0434L26.6441 28.875H26.8125Z" fill="#EFEFEF"/>
<path d="M28.875 6.1875C28.875 5.04831 27.9517 4.125 26.8125 4.125H26.6441L4.125 26.6441V26.8125C4.125 27.9517 5.04831 28.875 6.1875 28.875H6.35594L28.875 6.35594V6.1875Z" fill="#FFD73D"/>
<path d="M24.75 1.375C20.9529 1.375 17.875 4.45294 17.875 8.25C17.875 12.9339 23.1454 14.6403 24.2914 21.8976C24.365 22.3651 24.3705 22.6875 24.75 22.6875C25.1295 22.6875 25.135 22.3651 25.2086 21.8976C26.3546 14.6403 31.625 12.9339 31.625 8.25C31.625 4.45294 28.5471 1.375 24.75 1.375Z" fill="#D73F35"/>
<path d="M24.75 5.84375C24.434 5.84375 24.1211 5.90599 23.8292 6.02691C23.5372 6.14784 23.272 6.32508 23.0485 6.54852C22.8251 6.77197 22.6478 7.03723 22.5269 7.32917C22.406 7.62111 22.3438 7.93401 22.3438 8.25C22.3438 8.56599 22.406 8.87889 22.5269 9.17083C22.6478 9.46277 22.8251 9.72803 23.0485 9.95148C23.272 10.1749 23.5372 10.3522 23.8292 10.4731C24.1211 10.594 24.434 10.6562 24.75 10.6562C25.066 10.6562 25.3789 10.594 25.6708 10.4731C25.9628 10.3522 26.228 10.1749 26.4515 9.95148C26.6749 9.72803 26.8522 9.46277 26.9731 9.17083C27.094 8.87889 27.1562 8.56599 27.1562 8.25C27.1562 7.93401 27.094 7.62111 26.9731 7.32917C26.8522 7.03723 26.6749 6.77197 26.4515 6.54852C26.228 6.32508 25.9628 6.14784 25.6708 6.02691C25.3789 5.90599 25.066 5.84375 24.75 5.84375Z" fill="#752622"/>
<path d="M9.96394 8.61506V10.0595H12.0223C11.7528 10.9354 11.022 11.5617 9.96394 11.5617C8.70375 11.5617 7.68281 10.5407 7.68281 9.28056C7.68281 8.02037 8.70444 6.99944 9.96394 6.99944C10.5304 6.99944 11.0474 7.20706 11.4462 7.54875L12.5104 6.48519C11.8387 5.87331 10.945 5.5 9.96394 5.5C7.87531 5.5 6.182 7.19331 6.182 9.28125C6.182 11.3692 7.87531 13.0625 9.96394 13.0625C13.2708 13.0625 13.8394 10.0946 13.5279 8.62056L9.96394 8.61506Z" fill="white"/>
</svg>
